<svg xmlns="http://www.w3.org/2000/svg" width="32" height="32" viewBox="0 0 32 32" fill="none">
  <path d="M16 4C8.26801 4 2 9.26801 2 16C2 19.3952 3.30224 22.4849 5.44304 24.7526C5.54262 24.8682 5.57843 25.0237 5.53324 25.1703L4.6129 29.6743C4.53241 29.9385 4.7323 30.2 5.00001 30.2H6.00001C6.10374 30.2 6.20373 30.1653 6.28319 30.1029L9.6 27.4C9.71209 27.3096 9.85924 27.2698 10.0043 27.2915C11.9018 27.7574 13.9065 28 16 28C23.732 28 30 22.732 30 16C30 9.26801 23.732 4 16 4Z" fill="#3498db"/>
  <path d="M16 4C8.26801 4 2 9.26801 2 16C2 19.3952 3.30224 22.4849 5.44304 24.7526C5.54262 24.8682 5.57843 25.0237 5.53324 25.1703L4.6129 29.6743C4.53241 29.9385 4.7323 30.2 5.00001 30.2H6.00001C6.10374 30.2 6.20373 30.1653 6.28319 30.1029L9.6 27.4C9.71209 27.3096 9.85924 27.2698 10.0043 27.2915C11.9018 27.7574 13.9065 28 16 28C23.732 28 30 22.732 30 16C30 9.26801 23.732 4 16 4Z" stroke="white" stroke-width="1.5"/>
</svg> 